# xmcd
#
# Track frame offsets:
#	150
#	11541
#	20511
#	38608
#	49913
#	64725
#	75442
#	91234
#	101979
#	116593
#	128403
#
# Disc length: 1953 seconds
#
# Revision: 1
# Processed by: cddbd v1.4PL0 Copyright (c) Steve Scherf et al.
# Submitted via: EasyCDDAExtractor 5.1.0
#
DISCID=7f079f0b
DTITLE=Sara Evans - Three Chords and The Truth
DYEAR=1997
DGENRE=Country
TTITLE0=True Lies
TTITLE1=Shame About That
TTITLE2=Three Chords and The Truth
TTITLE3=If You Ever Want My Lovin'
TTITLE4=Imagine That
TTITLE5=Even Now
TTITLE6=I Don't Wanna See The Light
TTITLE7=I've Got A Tiger By The Tail
TTITLE8=Unopened
TTITLE9=Walk Out Backwards
TTITLE10=The Week The River Raged
EXTD=
EXTT0=
EXTT1=
EXTT2=
EXTT3=
EXTT4=
EXTT5=
EXTT6=
EXTT7=
EXTT8=
EXTT9=
EXTT10=
PLAYORDER=
